<svg width="32" height="32" viewBox="0 0 32 32" fill="none" xmlns="http://www.w3.org/2000/svg">
<g clip-path="url(#clip0_103_667)">
<path d="M23 13C23 11.2083 22.5625 9.54167 21.6875 8C20.7708 6.45833 19.5417 5.22917 18 4.3125C16.4167 3.4375 14.75 3 13 3C11.25 3 9.58333 3.4375 8 4.3125C6.45833 5.22917 5.22917 6.45833 4.3125 8C3.4375 9.54167 3 11.2083 3 13C3 14.7917 3.4375 16.4583 4.3125 18C5.22917 19.5417 6.45833 20.7708 8 21.6875C9.58333 22.5625 11.25 23 13 23C14.75 23 16.4167 22.5625 18 21.6875C19.5417 20.7708 20.7708 19.5417 21.6875 18C22.5625 16.4583 23 14.7917 23 13ZM21.0625 23.1875C18.8125 25.0208 16.125 25.9583 13 26C9.33333 25.9167 6.27083 24.6458 3.8125 22.1875C1.35417 19.7292 0.0833333 16.6667 0 13C0.0833333 9.33333 1.35417 6.27083 3.8125 3.8125C6.27083 1.35417 9.33333 0.083334 13 0C16.6667 0.083334 19.7292 1.35417 22.1875 3.8125C24.6458 6.27083 25.9167 9.33333 26 13C25.9583 16.125 25.0208 18.8125 23.1875 21.0625L31.5625 29.4375C32.1458 30.1458 32.1458 30.8542 31.5625 31.5625C30.8542 32.1458 30.1458 32.1458 29.4375 31.5625L21.0625 23.1875Z" fill="#525D6A"/>
</g>
<defs>
<clipPath id="clip0_103_667">
<rect width="32" height="32" fill="white" transform="matrix(1 0 0 -1 0 32)"/>
</clipPath>
</defs>
</svg>
